<?xml version="1.0" encoding="utf-8"?>
<!-- Generator: Adobe Illustrator 21.0.0, SVG Export Plug-In . SVG Version: 6.00 Build 0)  -->
<svg version="1.1" id="Layer_1" xmlns="http://www.w3.org/2000/svg" xmlns:xlink="http://www.w3.org/1999/xlink" x="0px" y="0px"
	 viewBox="0 0 500 500" style="enable-background:new 0 0 500 500;" xml:space="preserve">
<style type="text/css">
	.st0{fill:#231F20;}
</style>
<path class="st0" d="M250,0C111.94,0,0,111.94,0,250c0,138.09,111.94,250,250,250c138.08,0,250-111.91,250-250
	C500,111.94,388.08,0,250,0z M303.56,250.09h-35.03c0,55.97,0,124.91,0,124.91h-51.91c0,0,0-68.24,0-124.91h-24.69v-44.13h24.69
	V177.4c0-20.45,9.7-52.4,52.38-52.4l38.45,0.15V168c0,0-23.38,0-27.91,0c-4.55,0-11.02,2.26-11.02,12.02v25.94h39.58L303.56,250.09z
	"/>
</svg>
