<?xml version="1.0" encoding="utf-8"?>
<!-- Generator: Adobe Illustrator 21.0.0, SVG Export Plug-In . SVG Version: 6.00 Build 0)  -->
<svg version="1.1" id="Layer_1" xmlns="http://www.w3.org/2000/svg" xmlns:xlink="http://www.w3.org/1999/xlink" x="0px" y="0px"
	 viewBox="0 0 500 500" style="enable-background:new 0 0 500 500;" xml:space="preserve">
<style type="text/css">
	.st0{fill:#231F20;}
</style>
<path class="st0" d="M250,0C111.94,0,0,111.94,0,250c0,138.09,111.94,250,250,250c138.06,0,250-111.91,250-250
	C500,111.94,388.06,0,250,0z M349.41,199.04c0.11,2.2,0.15,4.4,0.15,6.62c0,67.78-51.59,145.93-145.94,145.93
	c-28.98,0-55.92-8.48-78.63-23.04c4.03,0.46,8.1,0.7,12.24,0.7c24.05,0,46.14-8.18,63.69-21.94c-22.43-0.43-41.38-15.26-47.9-35.61
	c3.13,0.58,6.33,0.92,9.64,0.92c4.68,0,9.22-0.64,13.5-1.8c-23.44-4.73-41.14-25.45-41.14-50.29c0-0.21,0-0.43,0-0.64
	c6.93,3.85,14.83,6.13,23.24,6.41c-13.76-9.19-22.81-24.9-22.81-42.7c0-9.4,2.53-18.22,6.94-25.79
	c25.28,31.04,63.1,51.45,105.71,53.59c-0.87-3.75-1.33-7.66-1.33-11.69c0-28.32,22.97-51.27,51.3-51.27
	c14.74,0,28.08,6.23,37.43,16.17c11.67-2.29,22.66-6.56,32.58-12.45c-3.85,11.99-11.96,22.03-22.55,28.38
	c10.38-1.22,20.26-4,29.45-8.06C368.13,182.77,359.44,191.8,349.41,199.04z"/>
</svg>
