<?xml version="1.0" encoding="utf-8"?>
<!-- Generator: Adobe Illustrator 21.0.0, SVG Export Plug-In . SVG Version: 6.00 Build 0)  -->
<svg version="1.1" id="Layer_1" xmlns="http://www.w3.org/2000/svg" xmlns:xlink="http://www.w3.org/1999/xlink" x="0px" y="0px"
	 viewBox="0 0 500 500" style="enable-background:new 0 0 500 500;" xml:space="preserve">
<style type="text/css">
	.st0{fill:#231F20;}
</style>
<g>
	<path class="st0" d="M29.85,131.85h440.3c16.48,0,29.85-13.37,29.85-29.85c0-16.5-13.37-29.85-29.85-29.85H29.85
		C13.37,72.15,0,85.5,0,102C0,118.48,13.37,131.85,29.85,131.85z"/>
	<path class="st0" d="M470.15,221.4H29.85C13.37,221.4,0,234.76,0,251.25c0,16.48,13.37,29.85,29.85,29.85h440.3
		c16.48,0,29.85-13.37,29.85-29.85C500,234.76,486.63,221.4,470.15,221.4z"/>
	<path class="st0" d="M470.15,368.15H29.85C13.37,368.15,0,381.52,0,398c0,16.5,13.37,29.85,29.85,29.85h440.3
		c16.48,0,29.85-13.35,29.85-29.85C500,381.52,486.63,368.15,470.15,368.15z"/>
</g>
</svg>
